<?xml version="1.0" encoding="utf-8"?>
<!-- Generator: Adobe Illustrator 15.0.0, SVG Export Plug-In . SVG Version: 6.00 Build 0)  -->
<!DOCTYPE svg PUBLIC "-//W3C//DTD SVG 1.1//EN" "http://www.w3.org/Graphics/SVG/1.1/DTD/svg11.dtd">
<svg version="1.1" id="Layer_1" xmlns="http://www.w3.org/2000/svg" xmlns:xlink="http://www.w3.org/1999/xlink" x="0px" y="0px"
	 width="345.86px" height="500px" viewBox="0 0 345.86 500" enable-background="new 0 0 345.86 500" xml:space="preserve">
<g>
	<rect fill="#E31937" width="345.86" height="500"/>
</g>
<g id="TESLA">
	<g>
		<polyline fill="#FFFFFF" points="266.601,403.28 266.601,425.192 273.628,425.192 273.628,410.603 299.203,410.603 
			299.203,425.192 306.225,425.192 306.225,403.318 266.601,403.28 		"/>
		<path fill="#FFFFFF" d="M272.845,396.192h27.02c3.753-0.746,6.544-4.058,7.331-7.262h-41.681
			C266.294,392.135,269.126,395.446,272.845,396.192"/>
	</g>
	<g>
		<path fill="#FFFFFF" d="M245.319,425.206c3.543-1.502,5.449-4.1,6.179-7.14h-31.517l0.02-29.118l-7.065,0.02v36.238H245.319"/>
	</g>
	<g>
		<path fill="#FFFFFF" d="M160.398,396.094h24.954c3.762-1.093,6.921-3.959,7.691-7.136h-39.64v21.415h32.444v7.515l-25.449,0.02
			c-3.988,1.112-7.37,3.79-9.057,7.327l2.062-0.038h39.415v-21.944h-32.42V396.094"/>
	</g>
	<g>
		<path fill="#FFFFFF" d="M98.795,396.163h27.011c3.758-0.749,6.551-4.058,7.334-7.265H91.461
			C92.239,392.105,95.073,395.414,98.795,396.163"/>
		<path fill="#FFFFFF" d="M98.795,410.485h27.011c3.758-0.741,6.551-4.053,7.334-7.262H91.461
			C92.239,406.433,95.073,409.744,98.795,410.485"/>
		<path fill="#FFFFFF" d="M98.795,425.202h27.011c3.758-0.747,6.551-4.058,7.334-7.263H91.461
			C92.239,421.145,95.073,424.455,98.795,425.202"/>
	</g>
	<g>
		<path fill="#FFFFFF" d="M28.524,388.986c0.812,3.167,3.554,6.404,7.316,7.215H47.21l0.58,0.229v28.691h7.1v-28.691l0.645-0.229
			h11.38c3.804-0.98,6.487-4.048,7.285-7.215v-0.07H28.524V388.986"/>
	</g>
</g>
<g id="T">
	<path fill="#FFFFFF" d="M173.146,317.299l35.476-199.519c33.815,0,44.481,3.708,46.021,18.843c0,0,22.684-8.458,34.125-25.636
		c-44.646-20.688-89.505-21.621-89.505-21.621l-26.176,31.882l0.059-0.004L146.97,89.361c0,0-44.86,0.934-89.5,21.622
		c11.431,17.178,34.124,25.636,34.124,25.636c1.549-15.136,12.202-18.844,45.79-18.868L173.146,317.299"/>
	<path fill="#FFFFFF" d="M173.132,80.157c36.09-0.276,77.399,5.583,119.687,24.014c5.652-10.173,7.105-14.669,7.105-14.669
		c-46.227-18.289-89.518-24.548-126.797-24.705C135.85,64.954,92.561,71.214,46.34,89.502c0,0,2.062,5.538,7.1,14.669
		c42.28-18.431,83.596-24.29,119.687-24.014H173.132"/>
</g>
</svg>
